<svg width="27" height="24" viewBox="0 0 27 24" fill="none" xmlns="http://www.w3.org/2000/svg">
<path d="M24 2.66667H19.7733L18.12 0.866667C17.6267 0.32 16.9067 0 16.16 0H10.5067C9.76 0 9.04 0.32 8.53333 0.866667L6.89333 2.66667H2.66667C1.2 2.66667 0 3.86667 0 5.33333V21.3333C0 22.8 1.2 24 2.66667 24H24C25.4667 24 26.6667 22.8 26.6667 21.3333V5.33333C26.6667 3.86667 25.4667 2.66667 24 2.66667ZM13.3333 20C9.65333 20 6.66667 17.0133 6.66667 13.3333C6.66667 9.65333 9.65333 6.66667 13.3333 6.66667C17.0133 6.66667 20 9.65333 20 13.3333C20 17.0133 17.0133 20 13.3333 20Z" fill="#3AA76D"/>
</svg>
