<svg width="25" height="25" viewBox="0 0 25 25" fill="none" xmlns="http://www.w3.org/2000/svg">
<path d="M12.991 11.2629C12.381 11.2629 11.891 11.7529 11.891 12.3629C11.891 12.9729 12.381 13.4629 12.991 13.4629C13.601 13.4629 14.091 12.9729 14.091 12.3629C14.091 11.7529 13.601 11.2629 12.991 11.2629ZM12.991 2.36285C7.47097 2.36285 2.99097 6.84285 2.99097 12.3629C2.99097 17.8829 7.47097 22.3629 12.991 22.3629C18.511 22.3629 22.991 17.8829 22.991 12.3629C22.991 6.84285 18.511 2.36285 12.991 2.36285ZM15.181 14.5529L6.99097 18.3629L10.801 10.1729L18.991 6.36285L15.181 14.5529Z" fill="white"/>
</svg>
