<svg width="19" height="23" viewBox="0 0 19 23" fill="none" xmlns="http://www.w3.org/2000/svg">
<path d="M13 0.954712H2C0.9 0.954712 0 1.85471 0 2.95471V15.9547C0 16.5047 0.45 16.9547 1 16.9547C1.55 16.9547 2 16.5047 2 15.9547V3.95471C2 3.40471 2.45 2.95471 3 2.95471H13C13.55 2.95471 14 2.50471 14 1.95471C14 1.40471 13.55 0.954712 13 0.954712ZM13.59 5.54471L18.42 10.3747C18.79 10.7447 19 11.2547 19 11.7847V20.9547C19 22.0547 18.1 22.9547 17 22.9547H5.99C4.89 22.9547 4 22.0547 4 20.9547L4.01 6.95471C4.01 5.85471 4.9 4.95471 6 4.95471H12.17C12.7 4.95471 13.21 5.16471 13.59 5.54471ZM13 11.9547H17.5L12 6.45471V10.9547C12 11.5047 12.45 11.9547 13 11.9547Z" fill="#D6E4EC"/>
</svg>
