<svg width="18" height="23" viewBox="0 0 18 23" fill="none" xmlns="http://www.w3.org/2000/svg">
<path d="M16.7143 20.4444C16.7143 21.85 15.5571 23 14.1429 23H3.85714C2.44286 23 1.28572 21.85 1.28572 20.4444V7.66667C1.28572 6.26111 2.44286 5.11111 3.85714 5.11111H14.1429C15.5571 5.11111 16.7143 6.26111 16.7143 7.66667V20.4444ZM12.6386 10.4394C12.1371 9.94111 11.3271 9.94111 10.8257 10.4394L9 12.2539L7.17429 10.4394C6.67286 9.94111 5.86286 9.94111 5.36143 10.4394C4.86 10.9378 4.86 11.7428 5.36143 12.2411L7.18714 14.0556L5.36143 15.87C4.86 16.3683 4.86 17.1733 5.36143 17.6717C5.86286 18.17 6.67286 18.17 7.17429 17.6717L9 15.8572L10.8257 17.6717C11.3271 18.17 12.1371 18.17 12.6386 17.6717C13.14 17.1733 13.14 16.3683 12.6386 15.87L10.8129 14.0556L12.6386 12.2411C13.14 11.7556 13.14 10.9378 12.6386 10.4394ZM4.5 1.27778L5.41286 0.370556C5.64429 0.140556 5.97857 0 6.31286 0H11.6871C12.0214 0 12.3557 0.140556 12.5871 0.370556L13.5 1.27778H16.7143C17.4214 1.27778 18 1.85278 18 2.55556C18 3.25833 17.4214 3.83333 16.7143 3.83333H1.28572C0.578571 3.83333 0 3.25833 0 2.55556C0 1.85278 0.578571 1.27778 1.28572 1.27778H4.5Z" fill="#FF0000"/>
</svg>
