<svg width="20" height="20" viewBox="0 0 20 20" fill="none" xmlns="http://www.w3.org/2000/svg">
<path fill-rule="evenodd" clip-rule="evenodd" d="M10.0001 6.64479C9.31089 6.64479 8.75006 7.20378 8.75006 7.89068C8.75006 8.57759 9.31089 9.13658 10.0001 9.13658C10.6892 9.13658 11.2501 8.57759 11.2501 7.89068C11.2501 7.20378 10.6892 6.64479 10.0001 6.64479ZM10.0001 10.7978C8.39173 10.7978 7.08339 9.49374 7.08339 7.89068C7.08339 6.28763 8.39173 4.98359 10.0001 4.98359C11.6084 4.98359 12.9167 6.28763 12.9167 7.89068C12.9167 9.49374 11.6084 10.7978 10.0001 10.7978ZM9.99998 1.6612C6.32415 1.6612 3.33331 4.61315 3.33331 8.24203C3.33331 12.7887 9.20748 17.8595 9.45748 18.073C9.61415 18.2067 9.80665 18.2732 9.99998 18.2732C10.1933 18.2732 10.3858 18.2067 10.5425 18.073C10.7925 17.8595 16.6666 12.7887 16.6666 8.24203C16.6666 4.61315 13.6758 1.6612 9.99998 1.6612Z" fill="#343C44"/>
</svg>
