<svg width="30" height="29" viewBox="0 0 30 29" fill="none" xmlns="http://www.w3.org/2000/svg">
<path d="M20.2439 10.6029C20.0028 7.00666 18.6918 3.48476 16.2658 0.557264C15.648 -0.185755 14.5179 -0.185755 13.9001 0.557264C11.4138 3.49962 10.0275 7.02152 9.72612 10.6029C11.6549 11.6134 13.4329 12.9211 14.985 14.5111C16.537 12.9359 18.3151 11.6282 20.2439 10.6029ZM10.4494 14.5409C10.2384 14.3923 9.99735 14.2585 9.77132 14.1099C9.99735 14.2734 10.2384 14.3923 10.4494 14.5409ZM20.1233 14.1694C19.9274 14.3031 19.7165 14.4071 19.5206 14.5557C19.7165 14.4071 19.9274 14.3031 20.1233 14.1694ZM14.985 19.2516C12.0466 14.8381 7.23983 11.7768 1.67959 11.2419C0.715209 11.1527 -0.0834166 11.9403 0.00699387 12.8914C0.685072 20.0243 5.50696 25.9388 12.0316 28.2421C12.9809 28.5839 13.9754 28.8365 15.0001 29C16.0247 28.8217 17.0042 28.5691 17.9685 28.2421C24.4932 25.9388 29.315 20.0392 29.9931 12.8914C30.0835 11.9403 29.2698 11.1527 28.3205 11.2419C22.7302 11.7768 17.9233 14.8381 14.985 19.2516Z" fill="black"/>
</svg>
