<svg width="97" height="69" viewBox="0 0 97 69" fill="none" xmlns="http://www.w3.org/2000/svg">
<path fill-rule="evenodd" clip-rule="evenodd" d="M24.4712 0H89.1076C93.0576 0 96.2894 3.25 96.2894 7.22222V57.7778C96.2894 61.75 93.0576 65 89.1076 65H48.7408C49.1497 63.9255 48.8778 62.6178 48.0659 61.8059L44.0378 57.7778H47.1208L49.6081 60.265C50.9794 61.6364 53.7656 61.4672 54.4528 59.0782C54.5759 58.65 54.6728 58.2156 54.7432 57.7778H85.5167C87.4917 57.7778 89.1076 56.1528 89.1076 54.1667V21.6667H63.9712C61.9962 21.6667 60.3803 20.0417 60.3803 18.0556V7.22222H28.0622C26.0872 7.22222 24.4712 8.84722 24.4712 10.8333V29.4668L22.5114 27.5069C23.7212 23.6938 22.8166 19.349 19.7875 16.3199C19.0279 15.5602 18.1854 14.9342 17.2894 14.4417V7.22222C17.2894 3.25 20.5212 0 24.4712 0ZM17.2894 33.8533V16.8069C17.6686 17.0829 18.0312 17.392 18.3733 17.7341C20.9741 20.3349 21.6658 24.1219 20.4485 27.3536C20.3001 27.7476 20.3743 28.1982 20.672 28.4959L24.4712 32.2952V41.0351L17.2894 33.8533ZM17.2894 36.6817V57.7778C17.2894 61.75 20.5212 65 24.4712 65H37.3456C36.8681 64.6557 36.4118 64.2687 35.982 63.839C34.2706 62.1275 33.2373 59.996 32.8804 57.7778H28.0622C26.0872 57.7778 24.4712 56.1528 24.4712 54.1667V43.8635L17.2894 36.6817ZM34.9119 57.7778C35.2486 59.4805 36.0768 61.1053 37.3962 62.4248C38.8563 63.8848 40.6902 64.7432 42.5899 65H45.0338C45.4692 64.9411 45.9013 64.8507 46.3261 64.7286C46.9926 64.537 47.1421 63.7105 46.6517 63.2201L41.2093 57.7778H34.9119ZM49.9492 57.7778L51.0223 58.8508C51.5126 59.3411 52.339 59.1918 52.5307 58.5254C52.6017 58.2784 52.6621 58.0289 52.7117 57.7778H49.9492Z" fill="#3AA76D"/>
<path fill-rule="evenodd" clip-rule="evenodd" d="M4.90261 21.2694C4.4123 20.7791 3.58583 20.9284 3.39421 21.5948C2.51161 24.6642 3.27942 28.1079 5.69763 30.5261C8.29778 33.1262 12.0835 33.8183 15.3147 32.6023C15.7086 32.454 16.159 32.5282 16.4567 32.8259L35.2535 51.6227C35.5512 51.9204 35.6254 52.371 35.4769 52.7651C34.2591 55.9971 34.9507 59.7845 37.5518 62.3856C39.9696 64.8035 43.4126 65.5714 46.4816 64.6894C47.1481 64.4979 47.2976 63.6714 46.8072 63.181L41.2754 57.6492C40.8849 57.2587 40.8849 56.6255 41.2754 56.235L44.2312 53.2793C44.6217 52.8888 45.2549 52.8888 45.6454 53.2793L51.1778 58.8117C51.6681 59.302 52.4945 59.1526 52.6862 58.4863C53.569 55.4167 52.8013 51.9728 50.3829 49.5545C47.783 46.9546 43.9979 46.2624 40.7668 47.4779C40.3729 47.6261 39.9226 47.5519 39.625 47.2543L20.8275 28.4568C20.5298 28.1591 20.4556 27.7085 20.604 27.3145C21.8214 24.0827 21.1296 20.2958 18.5288 17.6949C16.1108 15.2769 12.6676 14.5091 9.59837 15.3913C8.93192 15.5828 8.7825 16.4094 9.27283 16.8997L14.8047 22.4315C15.1952 22.8221 15.1952 23.4552 14.8047 23.8458L11.8489 26.8015C11.4584 27.192 10.8253 27.192 10.4347 26.8015L4.90261 21.2694Z" fill="#3AA76D"/>
</svg>
