<svg width="25" height="18" viewBox="0 0 25 18" fill="none" xmlns="http://www.w3.org/2000/svg">
<path d="M20.6587 4.69999C20.2687 4.30999 19.6387 4.30999 19.2487 4.69999C18.8687 5.07999 18.8587 5.71999 19.2487 6.10999L21.1287 7.98999L16.7937 7.98999L12.4587 7.98999C11.9087 7.98999 11.4587 8.43999 11.4587 8.98999C11.4587 9.53999 11.9087 9.98999 12.4587 9.98999L16.7937 9.98999L21.1287 9.98999L19.2487 11.88C18.8587 12.27 18.8587 12.9 19.2487 13.29C19.6387 13.68 20.2687 13.68 20.6587 13.29L24.2487 9.69999C24.6387 9.30999 24.6387 8.67999 24.2487 8.28999L20.6587 4.69999Z" fill="#343C44"/>
<path d="M16 0H2C0.9 0 0 0.9 0 2V16C0 17.1 0.9 18 2 18H16C17.1 18 18 17.1 18 16V13C18 12.45 17.55 12 17 12C16.45 12 16 12.45 16 13V15C16 15.55 15.55 16 15 16H3C2.45 16 2 15.55 2 15V3C2 2.45 2.45 2 3 2H15C15.55 2 16 2.45 16 3V5C16 5.55 16.45 6 17 6C17.55 6 18 5.55 18 5V2C18 0.9 17.11 0 16 0Z" fill="#343C44"/>
</svg>
