<svg width="79" height="65" viewBox="0 0 79 65" fill="none" xmlns="http://www.w3.org/2000/svg">
<path d="M71.8182 0H7.18182C3.23182 0 0 3.25 0 7.22222V57.7778C0 61.75 3.23182 65 7.18182 65H71.8182C75.7682 65 79 61.75 79 57.7778V7.22222C79 3.25 75.7682 0 71.8182 0ZM68.2273 57.7778H10.7727C8.79773 57.7778 7.18182 56.1528 7.18182 54.1667V10.8333C7.18182 8.84722 8.79773 7.22222 10.7727 7.22222H43.0909V18.0556C43.0909 20.0417 44.7068 21.6667 46.6818 21.6667H71.8182V54.1667C71.8182 56.1528 70.2023 57.7778 68.2273 57.7778Z" fill="#3AA76D"/>
</svg>
