<svg width="24" height="24" viewBox="0 0 24 24" fill="none" xmlns="http://www.w3.org/2000/svg">
<path fill-rule="evenodd" clip-rule="evenodd" d="M2.01 3.86995L3.42 2.44995L21.15 20.2L19.74 21.61L16.31 18.18C14.97 18.7 13.52 19 12 19C7 19 2.73 15.89 1 11.5C1.77 9.52995 3.06 7.82995 4.69 6.54995L2.01 3.86995ZM17.0004 11.5C17.0004 8.74 14.7604 6.5 12.0004 6.5C11.4904 6.5 11.0004 6.6 10.5304 6.74L8.36035 4.57C9.51035 4.2 10.7304 4 12.0004 4C17.0004 4 21.2704 7.11 23.0004 11.49C22.3104 13.25 21.2104 14.79 19.8204 16.02L16.7604 12.96C16.9004 12.5 17.0004 12.01 17.0004 11.5ZM12 16.5C9.24 16.5 7 14.26 7 11.5C7 10.73 7.18 9.99995 7.49 9.35995L9.06 10.93C9.03 11.11 9 11.3 9 11.5C9 13.16 10.34 14.5 12 14.5C12.2 14.5 12.38 14.47 12.57 14.43L14.14 16C13.49 16.32 12.77 16.5 12 16.5ZM14.97 11.17C14.82 9.76995 13.72 8.67995 12.33 8.52995L14.97 11.17Z" fill="#6D8991"/>
</svg>
